<?xml version="1.0" standalone="no"?><!DOCTYPE svg PUBLIC "-//W3C//DTD SVG 1.1//EN" "http://www.w3.org/Graphics/SVG/1.1/DTD/svg11.dtd"><svg t="1709194851186" class="icon" viewBox="0 0 1024 1024" version="1.1" xmlns="http://www.w3.org/2000/svg" p-id="21268" xmlns:xlink="http://www.w3.org/1999/xlink" width="200" height="200"><path d="M666.88 536.6272C744.2944 487.424 793.6 399.36 793.6 300.8c0-154.88-126.72-281.6-281.6-281.6s-281.6 126.72-281.6 281.6c0 98.56 49.3056 186.5728 126.72 235.8272-197.12 63.3856-337.92 249.9584-337.92 468.1728H89.6c0-232.2944 190.1056-422.4 422.4-422.4s422.4 190.1056 422.4 422.4h70.4c0-218.2144-140.8-404.7872-337.92-468.1728zM512 512a211.8144 211.8144 0 0 1-211.2-211.2A211.8144 211.8144 0 0 1 512 89.6a211.8144 211.8144 0 0 1 211.2 211.2A211.8144 211.8144 0 0 1 512 512z" fill="#000000" p-id="21269"></path></svg>